<?xml version="1.0" encoding="UTF-8" standalone="no"?>
<!DOCTYPE svg PUBLIC "-//W3C//DTD SVG 1.1//EN"
 "http://www.w3.org/Graphics/SVG/1.1/DTD/svg11.dtd">
<!-- Generated by graphviz version 2.40.1 (20161225.0304)
 -->
<!-- Title: dependencies Pages: 1 -->
<svg width="916pt" height="284pt"
 viewBox="0.00 0.00 916.00 284.00" xmlns="http://www.w3.org/2000/svg" xmlns:xlink="http://www.w3.org/1999/xlink">
<g id="graph0" class="graph" transform="scale(1 1) rotate(0) translate(4 280)">
<title>dependencies</title>
<polygon fill="#ffffff" stroke="transparent" points="-4,4 -4,-280 912,-280 912,4 -4,4"/>
<text text-anchor="start" x="433.0091" y="-42.4" font-family="sans-serif" font-weight="bold" font-size="14.00" fill="#000000">Legend</text>
<polygon fill="#ffffb3" stroke="transparent" points="220,-10 220,-30 240,-30 240,-10 220,-10"/>
<text text-anchor="start" x="243.629" y="-15.4" font-family="sans-serif" font-size="14.00" fill="#000000"> &#160;Declarations</text>
<polygon fill="#8dd3c7" stroke="transparent" points="333,-10 333,-30 353,-30 353,-10 333,-10"/>
<text text-anchor="start" x="356.7251" y="-15.4" font-family="sans-serif" font-size="14.00" fill="#000000"> &#160;Module</text>
<polygon fill="#80b1d3" stroke="transparent" points="419,-10 419,-30 439,-30 439,-10 419,-10"/>
<text text-anchor="start" x="442.7812" y="-15.4" font-family="sans-serif" font-size="14.00" fill="#000000"> &#160;Bootstrap</text>
<polygon fill="#fdb462" stroke="transparent" points="516,-10 516,-30 536,-30 536,-10 516,-10"/>
<text text-anchor="start" x="539.6732" y="-15.4" font-family="sans-serif" font-size="14.00" fill="#000000"> &#160;Providers</text>
<polygon fill="#fb8072" stroke="transparent" points="612,-10 612,-30 632,-30 632,-10 612,-10"/>
<text text-anchor="start" x="635.7258" y="-15.4" font-family="sans-serif" font-size="14.00" fill="#000000"> &#160;Exports</text>
<g id="clust1" class="cluster">
<title>cluster_AppModule</title>
<polygon fill="none" stroke="#000000" stroke-dasharray="1,5" points="8,-70 8,-268 900,-268 900,-70 8,-70"/>
</g>
<g id="clust2" class="cluster">
<title>cluster_AppModule_declarations</title>
<polygon fill="none" stroke="#000000" points="144,-78 144,-130 892,-130 892,-78 144,-78"/>
</g>
<g id="clust8" class="cluster">
<title>cluster_AppModule_imports</title>
<polygon fill="none" stroke="#000000" points="16,-78 16,-130 136,-130 136,-78 16,-78"/>
</g>
<g id="clust10" class="cluster">
<title>cluster_AppModule_bootstrap</title>
<polygon fill="none" stroke="#000000" points="389,-208 389,-260 513,-260 513,-208 389,-208"/>
</g>
<!-- AppComponent -->
<g id="node1" class="node">
<title>AppComponent</title>
<polygon fill="#ffffb3" stroke="#000000" points="883.9399,-122 778.0601,-122 778.0601,-86 883.9399,-86 883.9399,-122"/>
<text text-anchor="middle" x="831" y="-99.8" font-family="Times,serif" font-size="14.00" fill="#000000">AppComponent</text>
</g>
<!-- AppModule -->
<g id="node6" class="node">
<title>AppModule</title>
<polygon fill="#8dd3c7" stroke="#000000" points="492.6571,-187 489.6571,-191 468.6571,-191 465.6571,-187 409.3429,-187 409.3429,-151 492.6571,-151 492.6571,-187"/>
<text text-anchor="middle" x="451" y="-164.8" font-family="Times,serif" font-size="14.00" fill="#000000">AppModule</text>
</g>
<!-- AppComponent&#45;&gt;AppModule -->
<g id="edge1" class="edge">
<title>AppComponent&#45;&gt;AppModule</title>
<path fill="none" stroke="#000000" d="M831,-122.2843C831,-143.3211 831,-175 831,-175 831,-175 502.7537,-175 502.7537,-175"/>
<polygon fill="#000000" stroke="#000000" points="502.7537,-171.5001 492.7537,-175 502.7536,-178.5001 502.7537,-171.5001"/>
</g>
<!-- IssueDetailComponent -->
<g id="node2" class="node">
<title>IssueDetailComponent</title>
<polygon fill="#ffffb3" stroke="#000000" points="760.3047,-122 615.6953,-122 615.6953,-86 760.3047,-86 760.3047,-122"/>
<text text-anchor="middle" x="688" y="-99.8" font-family="Times,serif" font-size="14.00" fill="#000000">IssueDetailComponent</text>
</g>
<!-- IssueDetailComponent&#45;&gt;AppModule -->
<g id="edge2" class="edge">
<title>IssueDetailComponent&#45;&gt;AppModule</title>
<path fill="none" stroke="#000000" d="M688,-122.0225C688,-139.3734 688,-163 688,-163 688,-163 502.8253,-163 502.8253,-163"/>
<polygon fill="#000000" stroke="#000000" points="502.8253,-159.5001 492.8253,-163 502.8253,-166.5001 502.8253,-159.5001"/>
</g>
<!-- IssueFormComponent -->
<g id="node3" class="node">
<title>IssueFormComponent</title>
<polygon fill="#ffffb3" stroke="#000000" points="598.4313,-122 457.5687,-122 457.5687,-86 598.4313,-86 598.4313,-122"/>
<text text-anchor="middle" x="528" y="-99.8" font-family="Times,serif" font-size="14.00" fill="#000000">IssueFormComponent</text>
</g>
<!-- IssueFormComponent&#45;&gt;AppModule -->
<g id="edge3" class="edge">
<title>IssueFormComponent&#45;&gt;AppModule</title>
<path fill="none" stroke="#000000" d="M475.3065,-122.1061C475.3065,-122.1061 475.3065,-140.991 475.3065,-140.991"/>
<polygon fill="#000000" stroke="#000000" points="471.8065,-140.9909 475.3065,-150.991 478.8065,-140.991 471.8065,-140.9909"/>
</g>
<!-- IssueListComponent -->
<g id="node4" class="node">
<title>IssueListComponent</title>
<polygon fill="#ffffb3" stroke="#000000" points="439.8753,-122 308.1247,-122 308.1247,-86 439.8753,-86 439.8753,-122"/>
<text text-anchor="middle" x="374" y="-99.8" font-family="Times,serif" font-size="14.00" fill="#000000">IssueListComponent</text>
</g>
<!-- IssueListComponent&#45;&gt;AppModule -->
<g id="edge4" class="edge">
<title>IssueListComponent&#45;&gt;AppModule</title>
<path fill="none" stroke="#000000" d="M424.5547,-122.1061C424.5547,-122.1061 424.5547,-140.991 424.5547,-140.991"/>
<polygon fill="#000000" stroke="#000000" points="421.0548,-140.9909 424.5547,-150.991 428.0548,-140.991 421.0548,-140.9909"/>
</g>
<!-- MainPageComponent -->
<g id="node5" class="node">
<title>MainPageComponent</title>
<polygon fill="#ffffb3" stroke="#000000" points="290.094,-122 151.906,-122 151.906,-86 290.094,-86 290.094,-122"/>
<text text-anchor="middle" x="221" y="-99.8" font-family="Times,serif" font-size="14.00" fill="#000000">MainPageComponent</text>
</g>
<!-- MainPageComponent&#45;&gt;AppModule -->
<g id="edge5" class="edge">
<title>MainPageComponent&#45;&gt;AppModule</title>
<path fill="none" stroke="#000000" d="M221,-122.0225C221,-139.3734 221,-163 221,-163 221,-163 399.0819,-163 399.0819,-163"/>
<polygon fill="#000000" stroke="#000000" points="399.0819,-166.5001 409.0819,-163 399.0819,-159.5001 399.0819,-166.5001"/>
</g>
<!-- AppComponent  -->
<g id="node8" class="node">
<title>AppComponent </title>
<polygon fill="#80b1d3" stroke="#000000" points="505.439,-252 396.561,-252 396.561,-216 505.439,-216 505.439,-252"/>
<text text-anchor="middle" x="451" y="-229.8" font-family="Times,serif" font-size="14.00" fill="#000000">AppComponent </text>
</g>
<!-- AppModule&#45;&gt;AppComponent  -->
<g id="edge7" class="edge">
<title>AppModule&#45;&gt;AppComponent </title>
<path fill="none" stroke="#000000" stroke-dasharray="1,5" d="M451,-187.1061C451,-187.1061 451,-205.991 451,-205.991"/>
<polygon fill="#000000" stroke="#000000" points="447.5001,-205.9909 451,-215.991 454.5001,-205.991 447.5001,-205.9909"/>
</g>
<!-- RoutingModule -->
<g id="node7" class="node">
<title>RoutingModule</title>
<polygon fill="#8dd3c7" stroke="#000000" points="128.1681,-122 125.1681,-126 104.1681,-126 101.1681,-122 23.8319,-122 23.8319,-86 128.1681,-86 128.1681,-122"/>
<text text-anchor="middle" x="76" y="-99.8" font-family="Times,serif" font-size="14.00" fill="#000000">RoutingModule</text>
</g>
<!-- RoutingModule&#45;&gt;AppModule -->
<g id="edge6" class="edge">
<title>RoutingModule&#45;&gt;AppModule</title>
<path fill="none" stroke="#000000" d="M76,-122.2843C76,-143.3211 76,-175 76,-175 76,-175 399.0743,-175 399.0743,-175"/>
<polygon fill="#000000" stroke="#000000" points="399.0743,-178.5001 409.0743,-175 399.0743,-171.5001 399.0743,-178.5001"/>
</g>
</g>
</svg>
