<?xml version="1.0" encoding="UTF-8" standalone="no"?>
<!DOCTYPE svg PUBLIC "-//W3C//DTD SVG 1.1//EN"
 "http://www.w3.org/Graphics/SVG/1.1/DTD/svg11.dtd">
<!-- Generated by graphviz version 2.40.1 (20161225.0304)
 -->
<!-- Title: dependencies Pages: 1 -->
<svg width="760pt" height="284pt"
 viewBox="0.00 0.00 760.00 284.00" xmlns="http://www.w3.org/2000/svg" xmlns:xlink="http://www.w3.org/1999/xlink">
<g id="graph0" class="graph" transform="scale(1 1) rotate(0) translate(4 280)">
<title>dependencies</title>
<polygon fill="#ffffff" stroke="transparent" points="-4,4 -4,-280 756,-280 756,4 -4,4"/>
<text text-anchor="start" x="355.0091" y="-42.4" font-family="sans-serif" font-weight="bold" font-size="14.00" fill="#000000">Legend</text>
<polygon fill="#ffffb3" stroke="transparent" points="142,-10 142,-30 162,-30 162,-10 142,-10"/>
<text text-anchor="start" x="165.629" y="-15.4" font-family="sans-serif" font-size="14.00" fill="#000000"> &#160;Declarations</text>
<polygon fill="#8dd3c7" stroke="transparent" points="255,-10 255,-30 275,-30 275,-10 255,-10"/>
<text text-anchor="start" x="278.7251" y="-15.4" font-family="sans-serif" font-size="14.00" fill="#000000"> &#160;Module</text>
<polygon fill="#80b1d3" stroke="transparent" points="341,-10 341,-30 361,-30 361,-10 341,-10"/>
<text text-anchor="start" x="364.7812" y="-15.4" font-family="sans-serif" font-size="14.00" fill="#000000"> &#160;Bootstrap</text>
<polygon fill="#fdb462" stroke="transparent" points="438,-10 438,-30 458,-30 458,-10 438,-10"/>
<text text-anchor="start" x="461.6732" y="-15.4" font-family="sans-serif" font-size="14.00" fill="#000000"> &#160;Providers</text>
<polygon fill="#fb8072" stroke="transparent" points="534,-10 534,-30 554,-30 554,-10 534,-10"/>
<text text-anchor="start" x="557.7258" y="-15.4" font-family="sans-serif" font-size="14.00" fill="#000000"> &#160;Exports</text>
<g id="clust1" class="cluster">
<title>cluster_AppModule</title>
<polygon fill="none" stroke="#000000" stroke-dasharray="1,5" points="8,-70 8,-268 744,-268 744,-70 8,-70"/>
</g>
<g id="clust2" class="cluster">
<title>cluster_AppModule_declarations</title>
<polygon fill="none" stroke="#000000" points="144,-78 144,-130 736,-130 736,-78 144,-78"/>
</g>
<g id="clust7" class="cluster">
<title>cluster_AppModule_imports</title>
<polygon fill="none" stroke="#000000" points="16,-78 16,-130 136,-130 136,-78 16,-78"/>
</g>
<g id="clust9" class="cluster">
<title>cluster_AppModule_bootstrap</title>
<polygon fill="none" stroke="#000000" points="310,-208 310,-260 434,-260 434,-208 310,-208"/>
</g>
<!-- AppComponent -->
<g id="node1" class="node">
<title>AppComponent</title>
<polygon fill="#ffffb3" stroke="#000000" points="727.9399,-122 622.0601,-122 622.0601,-86 727.9399,-86 727.9399,-122"/>
<text text-anchor="middle" x="675" y="-99.8" font-family="Times,serif" font-size="14.00" fill="#000000">AppComponent</text>
</g>
<!-- AppModule -->
<g id="node5" class="node">
<title>AppModule</title>
<polygon fill="#8dd3c7" stroke="#000000" points="413.6571,-187 410.6571,-191 389.6571,-191 386.6571,-187 330.3429,-187 330.3429,-151 413.6571,-151 413.6571,-187"/>
<text text-anchor="middle" x="372" y="-164.8" font-family="Times,serif" font-size="14.00" fill="#000000">AppModule</text>
</g>
<!-- AppComponent&#45;&gt;AppModule -->
<g id="edge1" class="edge">
<title>AppComponent&#45;&gt;AppModule</title>
<path fill="none" stroke="#000000" d="M675,-122.2843C675,-143.3211 675,-175 675,-175 675,-175 423.8127,-175 423.8127,-175"/>
<polygon fill="#000000" stroke="#000000" points="423.8128,-171.5001 413.8127,-175 423.8127,-178.5001 423.8128,-171.5001"/>
</g>
<!-- IssueDetailComponent -->
<g id="node2" class="node">
<title>IssueDetailComponent</title>
<polygon fill="#ffffb3" stroke="#000000" points="604.3047,-122 459.6953,-122 459.6953,-86 604.3047,-86 604.3047,-122"/>
<text text-anchor="middle" x="532" y="-99.8" font-family="Times,serif" font-size="14.00" fill="#000000">IssueDetailComponent</text>
</g>
<!-- IssueDetailComponent&#45;&gt;AppModule -->
<g id="edge2" class="edge">
<title>IssueDetailComponent&#45;&gt;AppModule</title>
<path fill="none" stroke="#000000" d="M532,-122.0225C532,-139.3734 532,-163 532,-163 532,-163 424.0381,-163 424.0381,-163"/>
<polygon fill="#000000" stroke="#000000" points="424.0382,-159.5001 414.0381,-163 424.0381,-166.5001 424.0382,-159.5001"/>
</g>
<!-- IssueFormComponent -->
<g id="node3" class="node">
<title>IssueFormComponent</title>
<polygon fill="#ffffb3" stroke="#000000" points="442.4313,-122 301.5687,-122 301.5687,-86 442.4313,-86 442.4313,-122"/>
<text text-anchor="middle" x="372" y="-99.8" font-family="Times,serif" font-size="14.00" fill="#000000">IssueFormComponent</text>
</g>
<!-- IssueFormComponent&#45;&gt;AppModule -->
<g id="edge3" class="edge">
<title>IssueFormComponent&#45;&gt;AppModule</title>
<path fill="none" stroke="#000000" d="M372,-122.1061C372,-122.1061 372,-140.991 372,-140.991"/>
<polygon fill="#000000" stroke="#000000" points="368.5001,-140.9909 372,-150.991 375.5001,-140.991 368.5001,-140.9909"/>
</g>
<!-- IssueListComponent -->
<g id="node4" class="node">
<title>IssueListComponent</title>
<polygon fill="#ffffb3" stroke="#000000" points="283.8753,-122 152.1247,-122 152.1247,-86 283.8753,-86 283.8753,-122"/>
<text text-anchor="middle" x="218" y="-99.8" font-family="Times,serif" font-size="14.00" fill="#000000">IssueListComponent</text>
</g>
<!-- IssueListComponent&#45;&gt;AppModule -->
<g id="edge4" class="edge">
<title>IssueListComponent&#45;&gt;AppModule</title>
<path fill="none" stroke="#000000" d="M218,-122.0225C218,-139.3734 218,-163 218,-163 218,-163 320.3254,-163 320.3254,-163"/>
<polygon fill="#000000" stroke="#000000" points="320.3254,-166.5001 330.3254,-163 320.3253,-159.5001 320.3254,-166.5001"/>
</g>
<!-- AppComponent  -->
<g id="node7" class="node">
<title>AppComponent </title>
<polygon fill="#80b1d3" stroke="#000000" points="426.439,-252 317.561,-252 317.561,-216 426.439,-216 426.439,-252"/>
<text text-anchor="middle" x="372" y="-229.8" font-family="Times,serif" font-size="14.00" fill="#000000">AppComponent </text>
</g>
<!-- AppModule&#45;&gt;AppComponent  -->
<g id="edge6" class="edge">
<title>AppModule&#45;&gt;AppComponent </title>
<path fill="none" stroke="#000000" stroke-dasharray="1,5" d="M372,-187.1061C372,-187.1061 372,-205.991 372,-205.991"/>
<polygon fill="#000000" stroke="#000000" points="368.5001,-205.9909 372,-215.991 375.5001,-205.991 368.5001,-205.9909"/>
</g>
<!-- RoutingModule -->
<g id="node6" class="node">
<title>RoutingModule</title>
<polygon fill="#8dd3c7" stroke="#000000" points="128.1681,-122 125.1681,-126 104.1681,-126 101.1681,-122 23.8319,-122 23.8319,-86 128.1681,-86 128.1681,-122"/>
<text text-anchor="middle" x="76" y="-99.8" font-family="Times,serif" font-size="14.00" fill="#000000">RoutingModule</text>
</g>
<!-- RoutingModule&#45;&gt;AppModule -->
<g id="edge5" class="edge">
<title>RoutingModule&#45;&gt;AppModule</title>
<path fill="none" stroke="#000000" d="M76,-122.2843C76,-143.3211 76,-175 76,-175 76,-175 320.2182,-175 320.2182,-175"/>
<polygon fill="#000000" stroke="#000000" points="320.2183,-178.5001 330.2182,-175 320.2182,-171.5001 320.2183,-178.5001"/>
</g>
</g>
</svg>
